# xmcd
#
# Track frame offsets: 
#        150
#        9954
#        21690
#        35578
#        49043
#        59360
#        72950
#        87896
#        104326
#        116563
#        125737
#        140248
#        155940
#        165176
#        180178
#        192588
#        209443
#        222406
#        239150
#        251319
#        261301
#        272252
#        286042
#        300408
#
# Disc length: 4147 seconds
#
# Revision: 0
# Processed by: cddbd v1.5.2PL0 Copyright (c) Steve Scherf et al.
# Submitted via: ExactAudioCopy v0.99pb4
#
DISCID=63103118
DTITLE=Mitty Collier - The Chess Singles 1961-1968
DYEAR=2008
DGENRE=Soul
TTITLE0=Gotta Get Away From It All (version 2)
TTITLE1=Everybody Makes A Mistake Sometimes
TTITLE2=Git Out
TTITLE3=That Will Be Good Enough For Me
TTITLE4=Do It With Confidence
TTITLE5=You're The Only One
TTITLE6=(Lookin' Out The Window) Watching And Waiting
TTITLE7=Like Only Yesterday
TTITLE8=My Party
TTITLE9=I'm Satisfied
TTITLE10=Sharing You
TTITLE11=Walk Away
TTITLE12=Help Me
TTITLE13=For My Man
TTITLE14=Ain't Thst Love
TTITLE15=No Faith, No Love
TTITLE16=I'm Your Part-Time Love
TTITLE17=I Had A Talk With My Man
TTITLE18=Let Them Talk
TTITLE19=My Babe
TTITLE20=Don't Let Her Take My Baby
TTITLE21=Miss Loneliness
TTITLE22=I've Got To Get Away From It All (version 1)
TTITLE23=I've Got Love
EXTD=
EXTT0=
EXTT1=
EXTT2=
EXTT3=
EXTT4=
EXTT5=
EXTT6=
EXTT7=
EXTT8=
EXTT9=
EXTT10=
EXTT11=
EXTT12=
EXTT13=
EXTT14=
EXTT15=
EXTT16=
EXTT17=
EXTT18=
EXTT19=
EXTT20=
EXTT21=
EXTT22=
EXTT23=
PLAYORDER=
